<?xml version="1.0" encoding="UTF-8"?>
<svg xmlns="http://www.w3.org/2000/svg" xmlns:xlink="http://www.w3.org/1999/xlink" width="150px" height="150px" viewBox="0 0 150 150" version="1.1">
<defs>
<clipPath id="clip1">
  <path d="M 25.007812 80 L 124.597656 80 L 124.597656 84 L 25.007812 84 Z M 25.007812 80 "/>
</clipPath>
<clipPath id="clip2">
  <path d="M 25.257812 91.625 L 124.351562 91.625 L 124.351562 127.191406 L 25.257812 127.191406 Z M 25.257812 91.625 "/>
</clipPath>
<clipPath id="clip3">
  <path d="M 50.226562 22.464844 L 99.382812 22.464844 L 99.382812 71.621094 L 50.226562 71.621094 Z M 50.226562 22.464844 "/>
</clipPath>
</defs>
<g id="surface1">
<rect x="0" y="0" width="150" height="150" style="fill:rgb(0%,0%,0%);fill-opacity:1;stroke:none;"/>
<g clip-path="url(#clip1)" clip-rule="nonzero">
<path style=" stroke:none;fill-rule:nonzero;fill:rgb(100%,100%,100%);fill-opacity:1;" d="M 26.003906 80.019531 L 123.601562 80.019531 C 124.152344 80.019531 124.597656 80.464844 124.597656 81.015625 L 124.597656 82.230469 C 124.597656 82.78125 124.152344 83.226562 123.601562 83.226562 L 26.003906 83.226562 C 25.453125 83.226562 25.007812 82.78125 25.007812 82.230469 L 25.007812 81.015625 C 25.007812 80.464844 25.453125 80.019531 26.003906 80.019531 Z M 26.003906 80.019531 "/>
</g>
<g clip-path="url(#clip2)" clip-rule="nonzero">
<path style=" stroke:none;fill-rule:nonzero;fill:rgb(100%,100%,100%);fill-opacity:1;" d="M 27.648438 126.777344 L 25.492188 126.777344 C 25.335938 126.777344 25.257812 126.574219 25.257812 126.171875 C 25.257812 125.871094 25.3125 125.589844 25.425781 125.332031 L 31.574219 109.5625 L 25.808594 93.566406 C 25.679688 93.078125 25.613281 92.773438 25.613281 92.648438 C 25.613281 92.257812 25.703125 92.0625 25.878906 92.0625 L 28.824219 92.0625 C 29.292969 92.0625 29.664062 92.476562 29.933594 93.300781 L 34.015625 105.222656 L 38.367188 93.25 C 38.683594 92.460938 39.066406 92.0625 39.523438 92.0625 L 41.46875 92.0625 C 41.703125 92.0625 41.816406 92.273438 41.816406 92.695312 C 41.816406 92.921875 41.773438 93.136719 41.6875 93.347656 L 35.945312 108 L 41.953125 125.28125 C 42.054688 125.585938 42.101562 125.859375 42.101562 126.101562 C 42.101562 126.550781 41.992188 126.777344 41.765625 126.777344 L 39.207031 126.777344 C 38.757812 126.777344 38.394531 126.363281 38.117188 125.539062 L 33.847656 112.757812 L 28.726562 125.589844 C 28.410156 126.378906 28.050781 126.777344 27.648438 126.777344 Z M 49.972656 116.257812 L 55.589844 116.257812 C 55.675781 116.257812 55.71875 116.140625 55.71875 115.910156 C 55.71875 115.816406 55.699219 115.761719 55.667969 115.742188 L 52.871094 96.550781 C 52.871094 96.550781 52.851562 96.507812 52.820312 96.414062 C 52.769531 96.414062 52.742188 96.453125 52.742188 96.53125 L 49.675781 115.671875 C 49.664062 115.738281 49.65625 115.8125 49.65625 115.890625 C 49.65625 116.132812 49.761719 116.257812 49.972656 116.257812 Z M 47.195312 126.777344 L 44.851562 126.777344 C 44.609375 126.777344 44.484375 126.535156 44.484375 126.054688 L 44.484375 125.71875 C 44.484375 125.554688 44.496094 125.425781 44.515625 125.332031 L 50.191406 93.320312 C 50.347656 92.480469 50.636719 92.0625 51.050781 92.0625 L 54.796875 92.0625 C 55.234375 92.0625 55.523438 92.480469 55.667969 93.320312 L 61.144531 125.332031 C 61.144531 125.410156 61.164062 125.535156 61.203125 125.699219 C 61.242188 125.871094 61.265625 125.996094 61.265625 126.074219 C 61.265625 126.542969 61.136719 126.777344 60.878906 126.777344 L 57.882812 126.777344 C 57.449219 126.777344 57.175781 126.414062 57.0625 125.6875 L 56.074219 119.191406 C 56.007812 118.921875 55.933594 118.789062 55.855469 118.789062 L 49.242188 118.789062 C 49.183594 118.789062 49.121094 118.933594 49.054688 119.222656 L 47.945312 125.6875 C 47.859375 126.125 47.761719 126.414062 47.648438 126.558594 C 47.539062 126.703125 47.386719 126.777344 47.195312 126.777344 Z M 73.257812 126.777344 L 70.527344 126.777344 C 70.113281 126.730469 69.816406 126.230469 69.636719 125.28125 L 63.605469 93.683594 C 63.554688 93.40625 63.527344 93.167969 63.527344 92.964844 C 63.527344 92.363281 63.648438 92.0625 63.894531 92.0625 L 66.621094 92.0625 C 67.011719 92.0625 67.300781 92.582031 67.492188 93.617188 L 72.148438 118.957031 L 76.421875 93.617188 C 76.597656 92.582031 76.882812 92.0625 77.269531 92.0625 L 79.5625 92.0625 C 79.800781 92.0625 79.917969 92.371094 79.917969 92.984375 C 79.917969 93.285156 79.902344 93.519531 79.871094 93.683594 L 74.105469 125.28125 C 73.941406 126.230469 73.660156 126.730469 73.257812 126.777344 Z M 91.914062 127.113281 C 90.609375 127.113281 89.507812 126.960938 88.609375 126.65625 C 87.707031 126.347656 86.894531 125.816406 86.167969 125.066406 C 85.441406 124.308594 84.875 123.25 84.46875 121.890625 C 84.058594 120.527344 83.746094 118.820312 83.527344 116.769531 C 83.3125 114.71875 83.203125 112.222656 83.203125 109.277344 C 83.203125 105.78125 83.363281 102.902344 83.6875 100.636719 C 84.007812 98.367188 84.539062 96.574219 85.277344 95.257812 C 86.015625 93.933594 86.910156 93.007812 87.957031 92.488281 C 89.003906 91.96875 90.324219 91.707031 91.914062 91.707031 C 93.539062 91.707031 94.878906 91.960938 95.925781 92.46875 C 96.96875 92.96875 97.859375 93.882812 98.605469 95.207031 C 99.34375 96.527344 99.875 98.320312 100.199219 100.585938 C 100.515625 102.851562 100.671875 105.75 100.671875 109.277344 C 100.671875 112.234375 100.570312 114.746094 100.367188 116.808594 C 100.15625 118.867188 99.839844 120.574219 99.425781 121.929688 C 99.003906 123.296875 98.429688 124.351562 97.707031 125.09375 C 96.980469 125.847656 96.164062 126.371094 95.253906 126.667969 C 94.34375 126.964844 93.230469 127.113281 91.914062 127.113281 Z M 91.914062 123.996094 C 93.183594 123.996094 94.152344 123.613281 94.820312 122.839844 C 95.492188 122.070312 95.988281 120.628906 96.3125 118.519531 C 96.628906 116.410156 96.785156 113.328125 96.785156 109.277344 C 96.785156 105.414062 96.636719 102.46875 96.339844 100.4375 C 96.046875 98.414062 95.5625 96.984375 94.886719 96.148438 C 94.210938 95.308594 93.226562 94.890625 91.941406 94.890625 C 90.671875 94.890625 89.691406 95.328125 89.003906 96.207031 C 88.320312 97.082031 87.828125 98.539062 87.53125 100.574219 C 87.234375 102.613281 87.085938 105.511719 87.085938 109.277344 C 87.085938 113.285156 87.25 116.34375 87.570312 118.453125 C 87.894531 120.558594 88.386719 122.011719 89.046875 122.800781 C 89.703125 123.597656 90.660156 123.996094 91.914062 123.996094 Z M 116.027344 126.777344 L 106.082031 126.777344 C 105.953125 126.777344 105.855469 126.757812 105.785156 126.714844 C 105.710938 126.675781 105.644531 126.566406 105.585938 126.390625 C 105.53125 126.210938 105.507812 125.960938 105.507812 125.640625 L 105.507812 93.199219 C 105.507812 92.734375 105.554688 92.425781 105.644531 92.28125 C 105.742188 92.136719 105.890625 92.0625 106.082031 92.0625 L 108.808594 92.0625 C 108.941406 92.0625 109.042969 92.082031 109.117188 92.121094 C 109.179688 92.164062 109.242188 92.269531 109.304688 92.449219 C 109.363281 92.628906 109.390625 92.878906 109.390625 93.199219 L 109.390625 123.175781 C 109.390625 123.511719 109.496094 123.679688 109.699219 123.679688 L 116.027344 123.679688 C 116.171875 123.679688 116.277344 123.695312 116.34375 123.722656 C 116.402344 123.746094 116.464844 123.820312 116.53125 123.9375 C 116.597656 124.058594 116.628906 124.25 116.628906 124.511719 L 116.628906 125.90625 C 116.628906 126.273438 116.578125 126.511719 116.480469 126.617188 C 116.386719 126.722656 116.238281 126.777344 116.027344 126.777344 Z M 123.746094 126.777344 L 121.046875 126.777344 C 120.917969 126.777344 120.816406 126.757812 120.742188 126.714844 C 120.667969 126.675781 120.605469 126.566406 120.542969 126.390625 C 120.492188 126.210938 120.464844 125.960938 120.464844 125.640625 L 120.464844 93.199219 C 120.464844 92.734375 120.515625 92.425781 120.613281 92.28125 C 120.707031 92.136719 120.851562 92.0625 121.046875 92.0625 L 123.746094 92.0625 C 123.957031 92.0625 124.109375 92.132812 124.203125 92.269531 C 124.300781 92.410156 124.351562 92.71875 124.351562 93.199219 L 124.351562 125.640625 C 124.351562 126.121094 124.300781 126.429688 124.203125 126.566406 C 124.109375 126.707031 123.957031 126.777344 123.746094 126.777344 Z M 123.746094 126.777344 "/>
</g>
<g clip-path="url(#clip3)" clip-rule="nonzero">
<path style=" stroke:none;fill-rule:nonzero;fill:rgb(100%,100%,100%);fill-opacity:1;" d="M 93.765625 22.464844 L 55.84375 22.464844 C 52.746094 22.464844 50.226562 24.984375 50.226562 28.085938 L 50.226562 66.003906 C 50.226562 69.105469 52.746094 71.625 55.84375 71.625 L 93.765625 71.625 C 96.863281 71.625 99.382812 69.105469 99.382812 66.003906 L 99.382812 28.085938 C 99.382812 24.984375 96.863281 22.464844 93.765625 22.464844 M 97.625 66.003906 C 97.625 68.136719 95.898438 69.867188 93.765625 69.867188 L 55.84375 69.867188 C 53.710938 69.867188 51.980469 68.136719 51.980469 66.003906 L 51.980469 32.886719 L 97.625 32.886719 Z M 97.625 31.128906 L 51.980469 31.128906 L 51.980469 28.085938 C 51.980469 25.953125 53.710938 24.222656 55.84375 24.222656 L 93.765625 24.222656 C 95.898438 24.222656 97.625 25.953125 97.625 28.085938 Z M 82.5625 57.507812 L 89.585938 50.484375 L 82.5625 43.464844 C 82.222656 43.121094 82.222656 42.566406 82.5625 42.226562 C 82.90625 41.882812 83.460938 41.882812 83.800781 42.226562 L 91.445312 49.871094 C 91.613281 50.039062 91.699219 50.257812 91.699219 50.496094 C 91.699219 50.730469 91.605469 50.953125 91.445312 51.117188 L 83.800781 58.761719 C 83.625 58.9375 83.40625 59.019531 83.175781 59.019531 C 82.949219 59.019531 82.730469 58.929688 82.554688 58.761719 C 82.21875 58.410156 82.222656 57.855469 82.5625 57.507812 M 58.457031 51.179688 C 58.292969 51.015625 58.203125 50.792969 58.203125 50.5625 C 58.203125 50.328125 58.292969 50.105469 58.457031 49.941406 L 66.105469 42.296875 C 66.445312 41.953125 67 41.953125 67.34375 42.296875 C 67.683594 42.636719 67.683594 43.191406 67.34375 43.535156 L 60.320312 50.554688 L 67.34375 57.578125 C 67.59375 57.828125 67.667969 58.207031 67.53125 58.535156 C 67.394531 58.859375 67.074219 59.074219 66.71875 59.070312 C 66.492188 59.070312 66.269531 58.984375 66.097656 58.816406 Z M 68.675781 64.8125 L 78.550781 36.855469 C 78.710938 36.398438 79.210938 36.160156 79.675781 36.316406 C 80.132812 36.476562 80.367188 36.984375 80.210938 37.441406 L 70.335938 65.390625 C 70.203125 65.75 69.871094 65.980469 69.511719 65.980469 C 69.410156 65.976562 69.3125 65.960938 69.222656 65.925781 C 69 65.851562 68.816406 65.691406 68.714844 65.484375 C 68.613281 65.273438 68.597656 65.03125 68.675781 64.8125 "/>
</g>
</g>
</svg>
