<?xml version="1.0" encoding="UTF-8"?>
<svg xmlns="http://www.w3.org/2000/svg" xmlns:xlink="http://www.w3.org/1999/xlink" width="75px" height="80px" viewBox="0 0 75 79" version="1.1">
<defs>
<clipPath id="clip1">
  <path d="M 0.0078125 43.179688 L 74.699219 43.179688 L 74.699219 45.632812 L 0.0078125 45.632812 Z M 0.0078125 43.179688 "/>
</clipPath>
<clipPath id="clip2">
  <path d="M 0.191406 51.6875 L 74.511719 51.6875 L 74.511719 77.761719 L 0.191406 77.761719 Z M 0.191406 51.6875 "/>
</clipPath>
<clipPath id="clip3">
  <path d="M 18.917969 0.988281 L 55.785156 0.988281 L 55.785156 37.027344 L 18.917969 37.027344 Z M 18.917969 0.988281 "/>
</clipPath>
</defs>
<g id="surface1">
<g clip-path="url(#clip1)" clip-rule="nonzero">
<path style=" stroke:none;fill-rule:nonzero;fill:rgb(100%,100%,100%);fill-opacity:1;" d="M 0.753906 43.179688 L 73.949219 43.179688 C 74.367188 43.179688 74.699219 43.507812 74.699219 43.90625 L 74.699219 44.804688 C 74.699219 45.207031 74.367188 45.53125 73.949219 45.53125 L 0.753906 45.53125 C 0.339844 45.53125 0.0078125 45.207031 0.0078125 44.804688 L 0.0078125 43.90625 C 0.0078125 43.507812 0.339844 43.179688 0.753906 43.179688 Z M 0.753906 43.179688 "/>
</g>
<g clip-path="url(#clip2)" clip-rule="nonzero">
<path style=" stroke:none;fill-rule:nonzero;fill:rgb(100%,100%,100%);fill-opacity:1;" d="M 1.988281 77.457031 L 0.371094 77.457031 C 0.253906 77.457031 0.191406 77.304688 0.191406 77.015625 C 0.191406 76.792969 0.234375 76.582031 0.316406 76.398438 L 4.925781 64.832031 L 0.609375 53.113281 C 0.511719 52.753906 0.457031 52.53125 0.457031 52.4375 C 0.457031 52.152344 0.527344 52.007812 0.660156 52.007812 L 2.871094 52.007812 C 3.222656 52.007812 3.496094 52.308594 3.699219 52.914062 L 6.761719 61.65625 L 10.027344 52.875 C 10.261719 52.296875 10.550781 52.007812 10.894531 52.007812 L 12.351562 52.007812 C 12.519531 52.007812 12.613281 52.164062 12.613281 52.472656 C 12.613281 52.636719 12.582031 52.792969 12.515625 52.949219 L 8.207031 63.691406 L 12.714844 76.355469 C 12.792969 76.582031 12.824219 76.78125 12.824219 76.960938 C 12.824219 77.289062 12.746094 77.457031 12.574219 77.457031 L 10.652344 77.457031 C 10.316406 77.457031 10.050781 77.152344 9.839844 76.546875 L 6.636719 67.175781 L 2.792969 76.582031 C 2.558594 77.164062 2.292969 77.457031 1.988281 77.457031 Z M 18.730469 69.742188 L 22.941406 69.742188 C 23.003906 69.742188 23.039062 69.660156 23.039062 69.484375 C 23.039062 69.421875 23.027344 69.382812 22.996094 69.363281 L 20.902344 55.296875 C 20.902344 55.296875 20.886719 55.265625 20.863281 55.199219 C 20.824219 55.199219 20.808594 55.226562 20.808594 55.285156 L 18.511719 69.316406 C 18.496094 69.363281 18.492188 69.417969 18.492188 69.472656 C 18.492188 69.65625 18.574219 69.742188 18.730469 69.742188 Z M 16.644531 77.457031 L 14.886719 77.457031 C 14.707031 77.457031 14.613281 77.277344 14.613281 76.925781 L 14.613281 76.675781 C 14.613281 76.554688 14.621094 76.460938 14.636719 76.398438 L 18.890625 52.933594 C 19.011719 52.316406 19.222656 52.007812 19.535156 52.007812 L 22.347656 52.007812 C 22.675781 52.007812 22.894531 52.316406 22.996094 52.933594 L 27.113281 76.398438 C 27.113281 76.449219 27.121094 76.542969 27.152344 76.664062 C 27.183594 76.792969 27.199219 76.878906 27.199219 76.9375 C 27.199219 77.28125 27.097656 77.457031 26.910156 77.457031 L 24.660156 77.457031 C 24.332031 77.457031 24.128906 77.1875 24.046875 76.660156 L 23.300781 71.898438 C 23.253906 71.699219 23.203125 71.597656 23.144531 71.597656 L 18.183594 71.597656 C 18.136719 71.597656 18.089844 71.703125 18.042969 71.917969 L 17.207031 76.660156 C 17.144531 76.972656 17.074219 77.1875 16.988281 77.292969 C 16.902344 77.398438 16.785156 77.457031 16.644531 77.457031 Z M 36.191406 77.457031 L 34.144531 77.457031 C 33.832031 77.421875 33.609375 77.054688 33.480469 76.355469 L 28.957031 53.195312 C 28.917969 52.996094 28.898438 52.816406 28.898438 52.671875 C 28.898438 52.226562 28.988281 52.007812 29.167969 52.007812 L 31.214844 52.007812 C 31.503906 52.007812 31.730469 52.386719 31.871094 53.148438 L 35.363281 71.722656 L 38.566406 53.148438 C 38.699219 52.386719 38.910156 52.007812 39.207031 52.007812 L 40.921875 52.007812 C 41.105469 52.007812 41.191406 52.234375 41.191406 52.683594 C 41.191406 52.902344 41.175781 53.078125 41.152344 53.195312 L 36.832031 76.355469 C 36.707031 77.054688 36.492188 77.421875 36.191406 77.457031 Z M 50.183594 77.703125 C 49.199219 77.703125 48.378906 77.589844 47.707031 77.371094 C 47.035156 77.144531 46.425781 76.753906 45.878906 76.199219 C 45.332031 75.644531 44.90625 74.871094 44.601562 73.875 C 44.296875 72.875 44.058594 71.621094 43.898438 70.121094 C 43.734375 68.617188 43.652344 66.785156 43.652344 64.625 C 43.652344 62.066406 43.777344 59.953125 44.015625 58.289062 C 44.253906 56.628906 44.652344 55.3125 45.210938 54.347656 C 45.761719 53.375 46.429688 52.699219 47.222656 52.320312 C 48.003906 51.9375 48.988281 51.75 50.183594 51.75 C 51.402344 51.75 52.40625 51.929688 53.199219 52.304688 C 53.976562 52.671875 54.644531 53.339844 55.207031 54.3125 C 55.757812 55.277344 56.15625 56.59375 56.394531 58.261719 C 56.636719 59.917969 56.753906 62.042969 56.753906 64.625 C 56.753906 66.796875 56.675781 68.636719 56.527344 70.148438 C 56.367188 71.65625 56.132812 72.910156 55.824219 73.90625 C 55.503906 74.902344 55.074219 75.675781 54.527344 76.222656 C 53.988281 76.777344 53.371094 77.152344 52.691406 77.375 C 52.007812 77.589844 51.175781 77.703125 50.183594 77.703125 Z M 50.183594 75.417969 C 51.136719 75.417969 51.867188 75.132812 52.363281 74.570312 C 52.871094 74.003906 53.246094 72.949219 53.484375 71.402344 C 53.71875 69.859375 53.839844 67.597656 53.839844 64.625 C 53.839844 61.792969 53.730469 59.632812 53.507812 58.148438 C 53.285156 56.664062 52.921875 55.617188 52.417969 55 C 51.910156 54.386719 51.167969 54.078125 50.207031 54.078125 C 49.253906 54.078125 48.515625 54.40625 48.003906 55.046875 C 47.488281 55.6875 47.121094 56.757812 46.898438 58.25 C 46.675781 59.746094 46.566406 61.863281 46.566406 64.625 C 46.566406 67.566406 46.6875 69.804688 46.925781 71.355469 C 47.175781 72.898438 47.535156 73.964844 48.027344 74.539062 C 48.535156 75.128906 49.242188 75.417969 50.183594 75.417969 Z M 68.269531 77.457031 L 60.808594 77.457031 C 60.722656 77.457031 60.644531 77.441406 60.585938 77.410156 C 60.535156 77.382812 60.488281 77.304688 60.441406 77.171875 C 60.398438 77.042969 60.378906 76.855469 60.378906 76.617188 L 60.378906 52.839844 C 60.378906 52.496094 60.417969 52.273438 60.488281 52.167969 C 60.558594 52.058594 60.667969 52.007812 60.808594 52.007812 L 62.855469 52.007812 C 62.953125 52.007812 63.027344 52.023438 63.089844 52.054688 C 63.136719 52.078125 63.183594 52.164062 63.230469 52.292969 C 63.269531 52.421875 63.300781 52.605469 63.300781 52.839844 L 63.300781 74.8125 C 63.300781 75.0625 63.371094 75.1875 63.519531 75.1875 L 68.269531 75.1875 C 68.378906 75.1875 68.457031 75.191406 68.507812 75.214844 C 68.550781 75.234375 68.597656 75.285156 68.648438 75.371094 C 68.695312 75.460938 68.722656 75.601562 68.722656 75.792969 L 68.722656 76.816406 C 68.722656 77.085938 68.691406 77.257812 68.613281 77.339844 C 68.535156 77.417969 68.425781 77.457031 68.269531 77.457031 Z M 74.0625 77.457031 L 72.035156 77.457031 C 71.933594 77.457031 71.859375 77.441406 71.808594 77.410156 C 71.753906 77.382812 71.699219 77.304688 71.660156 77.171875 C 71.621094 77.042969 71.601562 76.855469 71.601562 76.617188 L 71.601562 52.839844 C 71.601562 52.496094 71.636719 52.273438 71.714844 52.167969 C 71.777344 52.058594 71.886719 52.007812 72.035156 52.007812 L 74.0625 52.007812 C 74.222656 52.007812 74.332031 52.058594 74.402344 52.164062 C 74.480469 52.261719 74.511719 52.488281 74.511719 52.839844 L 74.511719 76.617188 C 74.511719 76.972656 74.480469 77.199219 74.402344 77.304688 C 74.332031 77.40625 74.222656 77.457031 74.0625 77.457031 Z M 74.0625 77.457031 "/>
</g>
<g clip-path="url(#clip3)" clip-rule="nonzero">
<path style=" stroke:none;fill-rule:nonzero;fill:rgb(100%,100%,100%);fill-opacity:1;" d="M 51.574219 0.988281 L 23.132812 0.988281 C 20.808594 0.988281 18.917969 2.835938 18.917969 5.105469 L 18.917969 32.910156 C 18.917969 35.179688 20.808594 37.027344 23.132812 37.027344 L 51.574219 37.027344 C 53.894531 37.027344 55.785156 35.179688 55.785156 32.910156 L 55.785156 5.105469 C 55.785156 2.835938 53.894531 0.988281 51.574219 0.988281 M 54.46875 32.910156 C 54.46875 34.46875 53.175781 35.738281 51.574219 35.738281 L 23.132812 35.738281 C 21.535156 35.738281 20.238281 34.46875 20.238281 32.910156 L 20.238281 8.628906 L 54.46875 8.628906 Z M 54.46875 7.34375 L 20.238281 7.34375 L 20.238281 5.105469 C 20.238281 3.546875 21.535156 2.277344 23.132812 2.277344 L 51.574219 2.277344 C 53.175781 2.277344 54.46875 3.546875 54.46875 5.105469 Z M 43.171875 26.679688 L 48.441406 21.527344 L 43.171875 16.378906 C 42.914062 16.132812 42.914062 15.726562 43.171875 15.476562 C 43.429688 15.226562 43.847656 15.226562 44.105469 15.476562 L 49.832031 21.078125 C 49.964844 21.199219 50.019531 21.363281 50.019531 21.539062 C 50.019531 21.707031 49.949219 21.871094 49.832031 21.992188 L 44.105469 27.597656 C 43.96875 27.726562 43.804688 27.785156 43.636719 27.785156 C 43.457031 27.785156 43.292969 27.722656 43.167969 27.597656 C 42.914062 27.335938 42.917969 26.933594 43.171875 26.679688 M 25.097656 22.039062 C 24.972656 21.914062 24.902344 21.753906 24.902344 21.585938 C 24.902344 21.414062 24.972656 21.253906 25.097656 21.128906 L 30.824219 15.527344 C 31.082031 15.277344 31.5 15.277344 31.757812 15.527344 C 32.015625 15.773438 32.015625 16.179688 31.757812 16.4375 L 26.488281 21.585938 L 31.757812 26.730469 C 31.945312 26.910156 31.996094 27.191406 31.898438 27.429688 C 31.792969 27.667969 31.550781 27.824219 31.289062 27.820312 C 31.121094 27.820312 30.957031 27.761719 30.820312 27.640625 Z M 32.761719 32.03125 L 40.167969 11.535156 C 40.285156 11.203125 40.660156 11.027344 41.003906 11.144531 C 41.347656 11.261719 41.527344 11.632812 41.410156 11.972656 L 34.003906 32.453125 C 33.902344 32.722656 33.652344 32.886719 33.378906 32.886719 C 33.308594 32.886719 33.234375 32.875 33.164062 32.851562 C 33 32.796875 32.863281 32.675781 32.789062 32.523438 C 32.714844 32.375 32.699219 32.191406 32.761719 32.03125 "/>
</g>
</g>
</svg>
