<?xml version="1.0" encoding="UTF-8"?>
<svg xmlns="http://www.w3.org/2000/svg" xmlns:xlink="http://www.w3.org/1999/xlink" width="50px" height="53px" viewBox="0 0 50 52" version="1.1">
<defs>
<clipPath id="clip1">
  <path d="M 0.00390625 28.46875 L 49.800781 28.46875 L 49.800781 30.113281 L 0.00390625 30.113281 Z M 0.00390625 28.46875 "/>
</clipPath>
<clipPath id="clip2">
  <path d="M 0.128906 34.175781 L 49.675781 34.175781 L 49.675781 51.667969 L 0.128906 51.667969 Z M 0.128906 34.175781 "/>
</clipPath>
<clipPath id="clip3">
  <path d="M 12.613281 0.164062 L 37.191406 0.164062 L 37.191406 24.339844 L 12.613281 24.339844 Z M 12.613281 0.164062 "/>
</clipPath>
</defs>
<g id="surface1">
<g clip-path="url(#clip1)" clip-rule="nonzero">
<path style=" stroke:none;fill-rule:nonzero;fill:rgb(100%,100%,100%);fill-opacity:1;" d="M 0.503906 28.46875 L 49.300781 28.46875 C 49.578125 28.46875 49.800781 28.6875 49.800781 28.957031 L 49.800781 29.558594 C 49.800781 29.828125 49.578125 30.046875 49.300781 30.046875 L 0.503906 30.046875 C 0.226562 30.046875 0.00390625 29.828125 0.00390625 29.558594 L 0.00390625 28.957031 C 0.00390625 28.6875 0.226562 28.46875 0.503906 28.46875 Z M 0.503906 28.46875 "/>
</g>
<g clip-path="url(#clip2)" clip-rule="nonzero">
<path style=" stroke:none;fill-rule:nonzero;fill:rgb(100%,100%,100%);fill-opacity:1;" d="M 1.324219 51.464844 L 0.246094 51.464844 C 0.167969 51.464844 0.128906 51.363281 0.128906 51.167969 C 0.128906 51.019531 0.15625 50.878906 0.210938 50.753906 L 3.285156 42.996094 L 0.40625 35.132812 C 0.339844 34.890625 0.304688 34.742188 0.304688 34.679688 C 0.304688 34.488281 0.351562 34.390625 0.441406 34.390625 L 1.914062 34.390625 C 2.148438 34.390625 2.332031 34.59375 2.464844 35 L 4.507812 40.863281 L 6.683594 34.972656 C 6.839844 34.585938 7.035156 34.390625 7.261719 34.390625 L 8.234375 34.390625 C 8.347656 34.390625 8.410156 34.496094 8.410156 34.703125 C 8.410156 34.8125 8.386719 34.917969 8.34375 35.023438 L 5.472656 42.230469 L 8.476562 50.726562 C 8.527344 50.878906 8.550781 51.011719 8.550781 51.132812 C 8.550781 51.351562 8.496094 51.464844 8.382812 51.464844 L 7.101562 51.464844 C 6.878906 51.464844 6.699219 51.261719 6.558594 50.855469 L 4.425781 44.566406 L 1.863281 50.878906 C 1.707031 51.269531 1.527344 51.464844 1.324219 51.464844 Z M 12.488281 46.289062 L 15.292969 46.289062 C 15.335938 46.289062 15.359375 46.234375 15.359375 46.117188 C 15.359375 46.074219 15.351562 46.046875 15.332031 46.035156 L 13.933594 36.597656 C 13.933594 36.597656 13.925781 36.578125 13.910156 36.53125 C 13.882812 36.53125 13.871094 36.550781 13.871094 36.589844 L 12.339844 46.003906 C 12.332031 46.035156 12.328125 46.070312 12.328125 46.109375 C 12.328125 46.230469 12.382812 46.289062 12.488281 46.289062 Z M 11.097656 51.464844 L 9.925781 51.464844 C 9.804688 51.464844 9.742188 51.34375 9.742188 51.109375 L 9.742188 50.941406 C 9.742188 50.859375 9.746094 50.796875 9.757812 50.753906 L 12.59375 35.011719 C 12.675781 34.597656 12.816406 34.390625 13.023438 34.390625 L 14.898438 34.390625 C 15.117188 34.390625 15.261719 34.597656 15.332031 35.011719 L 18.074219 50.753906 C 18.074219 50.789062 18.082031 50.851562 18.101562 50.933594 C 18.121094 51.019531 18.132812 51.078125 18.132812 51.117188 C 18.132812 51.347656 18.066406 51.464844 17.941406 51.464844 L 16.441406 51.464844 C 16.222656 51.464844 16.085938 51.285156 16.03125 50.929688 L 15.535156 47.734375 C 15.503906 47.601562 15.46875 47.535156 15.429688 47.535156 L 12.121094 47.535156 C 12.089844 47.535156 12.058594 47.605469 12.027344 47.75 L 11.472656 50.929688 C 11.429688 51.140625 11.382812 51.285156 11.324219 51.355469 C 11.269531 51.425781 11.191406 51.464844 11.097656 51.464844 Z M 24.128906 51.464844 L 22.761719 51.464844 C 22.554688 51.441406 22.40625 51.195312 22.320312 50.726562 L 19.304688 35.1875 C 19.277344 35.054688 19.265625 34.933594 19.265625 34.835938 C 19.265625 34.539062 19.324219 34.390625 19.445312 34.390625 L 20.808594 34.390625 C 21.003906 34.390625 21.152344 34.644531 21.246094 35.15625 L 23.574219 47.617188 L 25.710938 35.15625 C 25.800781 34.644531 25.941406 34.390625 26.136719 34.390625 L 27.28125 34.390625 C 27.402344 34.390625 27.460938 34.542969 27.460938 34.84375 C 27.460938 34.992188 27.449219 35.109375 27.433594 35.1875 L 24.554688 50.726562 C 24.472656 51.195312 24.328125 51.441406 24.128906 51.464844 Z M 33.457031 51.628906 C 32.800781 51.628906 32.253906 51.554688 31.804688 51.40625 C 31.355469 51.253906 30.949219 50.992188 30.585938 50.621094 C 30.222656 50.25 29.9375 49.730469 29.734375 49.0625 C 29.53125 48.390625 29.371094 47.550781 29.265625 46.542969 C 29.15625 45.535156 29.101562 44.304688 29.101562 42.855469 C 29.101562 41.140625 29.183594 39.722656 29.34375 38.605469 C 29.503906 37.492188 29.769531 36.609375 30.140625 35.960938 C 30.507812 35.308594 30.953125 34.855469 31.480469 34.601562 C 32.003906 34.34375 32.660156 34.21875 33.457031 34.21875 C 34.269531 34.21875 34.9375 34.339844 35.464844 34.589844 C 35.984375 34.835938 36.429688 35.285156 36.804688 35.9375 C 37.171875 36.585938 37.4375 37.46875 37.597656 38.585938 C 37.757812 39.699219 37.835938 41.125 37.835938 42.855469 C 37.835938 44.3125 37.785156 45.546875 37.683594 46.5625 C 37.578125 47.574219 37.421875 48.414062 37.214844 49.082031 C 37.003906 49.75 36.714844 50.269531 36.351562 50.636719 C 35.992188 51.007812 35.582031 51.261719 35.128906 51.410156 C 34.671875 51.554688 34.117188 51.628906 33.457031 51.628906 Z M 33.457031 50.097656 C 34.089844 50.097656 34.578125 49.90625 34.910156 49.527344 C 35.246094 49.148438 35.496094 48.441406 35.65625 47.402344 C 35.8125 46.367188 35.894531 44.851562 35.894531 42.855469 C 35.894531 40.957031 35.820312 39.507812 35.671875 38.511719 C 35.523438 37.515625 35.28125 36.8125 34.945312 36.398438 C 34.605469 35.988281 34.113281 35.78125 33.472656 35.78125 C 32.835938 35.78125 32.34375 36 32.003906 36.429688 C 31.660156 36.859375 31.414062 37.578125 31.265625 38.578125 C 31.117188 39.582031 31.042969 41.003906 31.042969 42.855469 C 31.042969 44.828125 31.125 46.332031 31.285156 47.371094 C 31.449219 48.40625 31.691406 49.121094 32.019531 49.507812 C 32.355469 49.902344 32.828125 50.097656 33.457031 50.097656 Z M 45.511719 51.464844 L 40.539062 51.464844 C 40.480469 51.464844 40.429688 51.453125 40.390625 51.433594 C 40.355469 51.414062 40.324219 51.363281 40.292969 51.273438 C 40.265625 51.1875 40.253906 51.0625 40.253906 50.902344 L 40.253906 34.949219 C 40.253906 34.71875 40.277344 34.570312 40.324219 34.5 C 40.371094 34.425781 40.445312 34.390625 40.539062 34.390625 L 41.902344 34.390625 C 41.96875 34.390625 42.019531 34.402344 42.058594 34.421875 C 42.089844 34.4375 42.121094 34.496094 42.152344 34.582031 C 42.179688 34.667969 42.199219 34.792969 42.199219 34.949219 L 42.199219 49.691406 C 42.199219 49.859375 42.246094 49.941406 42.347656 49.941406 L 45.511719 49.941406 C 45.585938 49.941406 45.636719 49.945312 45.671875 49.960938 C 45.699219 49.972656 45.730469 50.007812 45.765625 50.066406 C 45.796875 50.125 45.816406 50.21875 45.816406 50.347656 L 45.816406 51.035156 C 45.816406 51.214844 45.792969 51.332031 45.742188 51.386719 C 45.691406 51.4375 45.617188 51.464844 45.511719 51.464844 Z M 49.375 51.464844 L 48.023438 51.464844 C 47.957031 51.464844 47.90625 51.453125 47.871094 51.433594 C 47.835938 51.414062 47.800781 51.363281 47.773438 51.273438 C 47.746094 51.1875 47.734375 51.0625 47.734375 50.902344 L 47.734375 34.949219 C 47.734375 34.71875 47.757812 34.570312 47.808594 34.5 C 47.851562 34.425781 47.925781 34.390625 48.023438 34.390625 L 49.375 34.390625 C 49.480469 34.390625 49.554688 34.425781 49.601562 34.496094 C 49.652344 34.5625 49.675781 34.714844 49.675781 34.949219 L 49.675781 50.902344 C 49.675781 51.140625 49.652344 51.292969 49.601562 51.363281 C 49.554688 51.429688 49.480469 51.464844 49.375 51.464844 Z M 49.375 51.464844 "/>
</g>
<g clip-path="url(#clip3)" clip-rule="nonzero">
<path style=" stroke:none;fill-rule:nonzero;fill:rgb(100%,100%,100%);fill-opacity:1;" d="M 34.382812 0.164062 L 15.421875 0.164062 C 13.871094 0.164062 12.613281 1.402344 12.613281 2.925781 L 12.613281 21.578125 C 12.613281 23.101562 13.871094 24.339844 15.421875 24.339844 L 34.382812 24.339844 C 35.929688 24.339844 37.191406 23.101562 37.191406 21.578125 L 37.191406 2.925781 C 37.191406 1.402344 35.929688 0.164062 34.382812 0.164062 M 36.3125 21.578125 C 36.3125 22.625 35.449219 23.476562 34.382812 23.476562 L 15.421875 23.476562 C 14.355469 23.476562 13.492188 22.625 13.492188 21.578125 L 13.492188 5.289062 L 36.3125 5.289062 Z M 36.3125 4.425781 L 13.492188 4.425781 L 13.492188 2.925781 C 13.492188 1.878906 14.355469 1.027344 15.421875 1.027344 L 34.382812 1.027344 C 35.449219 1.027344 36.3125 1.878906 36.3125 2.925781 Z M 28.78125 17.398438 L 32.292969 13.941406 L 28.78125 10.488281 C 28.609375 10.324219 28.609375 10.050781 28.78125 9.882812 C 28.953125 9.714844 29.230469 9.714844 29.402344 9.882812 L 33.222656 13.640625 C 33.308594 13.722656 33.347656 13.832031 33.347656 13.949219 C 33.347656 14.0625 33.300781 14.171875 33.222656 14.253906 L 29.402344 18.015625 C 29.3125 18.101562 29.203125 18.140625 29.089844 18.140625 C 28.972656 18.140625 28.863281 18.097656 28.777344 18.015625 C 28.609375 17.839844 28.613281 17.570312 28.78125 17.398438 M 16.730469 14.285156 C 16.648438 14.203125 16.601562 14.09375 16.601562 13.980469 C 16.601562 13.867188 16.648438 13.757812 16.730469 13.675781 L 20.550781 9.917969 C 20.722656 9.75 21 9.75 21.171875 9.917969 C 21.34375 10.082031 21.34375 10.355469 21.171875 10.527344 L 17.660156 13.980469 L 21.171875 17.433594 C 21.296875 17.554688 21.332031 17.742188 21.265625 17.902344 C 21.195312 18.0625 21.035156 18.167969 20.859375 18.164062 C 20.746094 18.164062 20.636719 18.125 20.546875 18.042969 Z M 21.839844 20.988281 L 26.777344 7.238281 C 26.855469 7.015625 27.105469 6.898438 27.335938 6.976562 C 27.566406 7.054688 27.683594 7.304688 27.605469 7.53125 L 22.667969 21.273438 C 22.601562 21.453125 22.433594 21.5625 22.253906 21.5625 C 22.207031 21.5625 22.15625 21.554688 22.109375 21.539062 C 22 21.503906 21.910156 21.421875 21.859375 21.320312 C 21.808594 21.21875 21.800781 21.097656 21.839844 20.988281 "/>
</g>
</g>
</svg>
