<svg xmlns="http://www.w3.org/2000/svg" version="1.1" xmlns:xlink="http://www.w3.org/1999/xlink" xmlns:svgjs="http://svgjs.dev/svgjs" width="1500" height="1500" viewBox="0 0 1500 1500"><rect width="1500" height="1500" fill="#000000"></rect><g transform="matrix(0.6666666666666666,0,0,0.6666666666666666,248.03529557465038,222.9720430107527)"><svg viewBox="0 0 236 248" data-background-color="#89939e" preserveAspectRatio="xMidYMid meet" height="1576" width="1500" xmlns="http://www.w3.org/2000/svg" xmlns:xlink="http://www.w3.org/1999/xlink"><g id="tight-bounds" transform="matrix(1,0,0,1,0.4636702443825129,0.4000000000000057)"><svg viewBox="0 0 235.072659511235 247.2" height="247.2" width="235.072659511235"><g><svg viewBox="0 0 397.4975999999999 418.00440308245925" height="247.2" width="235.072659511235"><g><rect width="397.4975999999999" height="12.802922781093926" x="0" y="229.71684424659654" fill="#ffffff" opacity="1" stroke-width="0" stroke="transparent" fill-opacity="1" class="rect-yte-0" data-fill-palette-color="primary" rx="1%" id="yte-0" data-palette-color="#ffffff"></rect></g><g transform="matrix(1,0,0,1,0.9887999999999693,276.03527169024005)"><svg viewBox="0 0 395.52 141.96913139221923" height="141.96913139221923" width="395.52"><g id="textblocktransform"><svg viewBox="0 0 395.52 141.96913139221923" height="141.96913139221923" width="395.52" id="textblock"><g><svg viewBox="0 0 395.52 141.96913139221923" height="141.96913139221923" width="395.52"><g transform="matrix(1,0,0,1,0,0)"><svg width="395.52" viewBox="1.32 -35.47 100.23 35.81" height="141.96913139221923" data-palette-color="#ffffff"><g class="wordmark-text-0" data-fill-palette-color="primary" id="text-0"><path d="M3.74 0L1.56 0Q1.32 0 1.32-0.61L1.32-0.61Q1.32-1.07 1.49-1.46L1.49-1.46 7.71-17.41 1.88-33.59Q1.68-34.33 1.68-34.52L1.68-34.52Q1.68-35.11 1.95-35.11L1.95-35.11 4.93-35.11Q5.64-35.11 6.05-33.86L6.05-33.86 10.18-21.8 14.58-33.91Q15.06-35.11 15.75-35.11L15.75-35.11 17.72-35.11Q18.07-35.11 18.07-34.47L18.07-34.47Q18.07-34.13 17.94-33.81L17.94-33.81 12.13-18.99 18.21-1.51Q18.36-1.05 18.36-0.68L18.36-0.68Q18.36 0 18.02 0L18.02 0 15.43 0Q14.75 0 14.33-1.25L14.33-1.25 10.01-14.18 4.83-1.2Q4.35 0 3.74 0L3.74 0ZM26.32-10.64L26.32-10.64 32-10.64Q32.13-10.64 32.13-10.99L32.13-10.99Q32.13-11.13 32.08-11.16L32.08-11.16 29.25-30.57Q29.25-30.57 29.2-30.71L29.2-30.71Q29.12-30.71 29.12-30.59L29.12-30.59 26.02-11.23Q26-11.13 26-11.01L26-11.01Q26-10.64 26.32-10.64ZM23.51 0L21.14 0Q20.77 0 20.77-0.73L20.77-0.73 20.77-1.07Q20.77-1.32 20.8-1.46L20.8-1.46 26.54-33.84Q26.78-35.11 27.41-35.11L27.41-35.11 31.2-35.11Q31.86-35.11 32.08-33.84L32.08-33.84 37.62-1.46Q37.62-1.34 37.68-1.09 37.74-0.83 37.74-0.71L37.74-0.71Q37.74 0 37.35 0L37.35 0 34.32 0Q33.66 0 33.49-1.1L33.49-1.1 32.49-7.67Q32.39-8.08 32.27-8.08L32.27-8.08 25.58-8.08Q25.49-8.08 25.39-7.64L25.39-7.64 24.27-1.1Q24.14-0.44 23.97-0.22 23.8 0 23.51 0L23.51 0ZM49.87 0L47.11 0Q46.48-0.07 46.21-1.51L46.21-1.51 40.11-33.47Q40.03-33.89 40.03-34.2L40.03-34.2Q40.03-35.11 40.4-35.11L40.4-35.11 43.16-35.11Q43.75-35.11 44.04-33.54L44.04-33.54 48.75-7.91 53.07-33.54Q53.34-35.11 53.93-35.11L53.93-35.11 56.25-35.11Q56.61-35.11 56.61-34.18L56.61-34.18Q56.61-33.72 56.56-33.47L56.56-33.47 50.73-1.51Q50.48-0.07 49.87 0L49.87 0ZM68.74 0.34L68.74 0.34Q66.76 0.34 65.4-0.12 64.03-0.59 62.93-1.73 61.83-2.88 61.21-4.94 60.59-7.01 60.26-10.12 59.93-13.23 59.93-17.7L59.93-17.7Q59.93-23 60.42-26.44 60.91-29.88 62.03-31.88 63.15-33.89 64.74-34.68 66.33-35.47 68.74-35.47L68.74-35.47Q71.21-35.47 72.8-34.7 74.38-33.94 75.51-31.93 76.63-29.93 77.12-26.49 77.6-23.05 77.6-17.7L77.6-17.7Q77.6-13.21 77.29-10.08 76.97-6.96 76.34-4.9 75.7-2.83 74.6-1.7 73.5-0.56 72.12-0.11 70.74 0.34 68.74 0.34ZM68.74-2.81L68.74-2.81Q70.67-2.81 71.68-3.98 72.7-5.15 73.19-8.35 73.67-11.55 73.67-17.7L73.67-17.7Q73.67-23.56 73.22-26.64 72.77-29.71 71.75-30.98 70.72-32.25 68.77-32.25L68.77-32.25Q66.84-32.25 65.8-30.92 64.76-29.59 64.31-26.5 63.86-23.41 63.86-17.7L63.86-17.7Q63.86-11.62 64.35-8.42 64.84-5.22 65.84-4.02 66.84-2.81 68.74-2.81ZM93.13 0L83.07 0Q82.88 0 82.77-0.06 82.66-0.12 82.57-0.39 82.49-0.66 82.49-1.15L82.49-1.15 82.49-33.96Q82.49-34.67 82.63-34.89 82.78-35.11 83.07-35.11L83.07-35.11 85.83-35.11Q86.03-35.11 86.14-35.05 86.24-34.99 86.33-34.72 86.42-34.45 86.42-33.96L86.42-33.96 86.42-3.64Q86.42-3.13 86.73-3.13L86.73-3.13 93.13-3.13Q93.35-3.13 93.45-3.09 93.54-3.05 93.64-2.87 93.74-2.69 93.74-2.29L93.74-2.29 93.74-0.88Q93.74-0.32 93.59-0.16 93.45 0 93.13 0L93.13 0ZM100.94 0L98.21 0Q98.01 0 97.9-0.06 97.79-0.12 97.7-0.39 97.62-0.66 97.62-1.15L97.62-1.15 97.62-33.96Q97.62-34.67 97.77-34.89 97.91-35.11 98.21-35.11L98.21-35.11 100.94-35.11Q101.26-35.11 101.4-34.9 101.55-34.69 101.55-33.96L101.55-33.96 101.55-1.15Q101.55-0.42 101.4-0.21 101.26 0 100.94 0L100.94 0Z" fill="#ffffff" data-fill-palette-color="primary"></path></g></svg></g></svg></g></svg></g></svg></g><g transform="matrix(1,0,0,1,100.64813020797646,0)"><svg viewBox="0 0 196.201339584047 196.201339584047" height="196.201339584047" width="196.201339584047"><g><svg xmlns="http://www.w3.org/2000/svg" xmlns:xlink="http://www.w3.org/1999/xlink" version="1.1" x="0" y="0" viewBox="22 22 56 56" style="enable-background:new 0 0 100 100;" xml:space="preserve" height="196.201339584047" width="196.201339584047" class="icon-icon-0" data-fill-palette-color="accent" id="icon-0"><path d="M71.6 22H28.4C24.87 22 22 24.87 22 28.4V71.6C22 75.13 24.87 78 28.4 78H71.6C75.13 78 78 75.13 78 71.6V28.4C78 24.87 75.13 22 71.6 22M76 71.6A4.4 4.4 0 0 1 71.6 76H28.4A4.4 4.4 0 0 1 24 71.6V33.87H76zM76 31.87H24V28.4A4.4 4.4 0 0 1 28.4 24H71.6A4.4 4.4 0 0 1 76 28.4zM58.84 61.92L66.84 53.92 58.84 45.92A0.996 0.996 0 1 1 60.25 44.51L68.96 53.22C69.15 53.41 69.25 53.66 69.25 53.93S69.14 54.45 68.96 54.64L60.25 63.35C60.05 63.55 59.8 63.64 59.54 63.64S59.03 63.54 58.83 63.35A1.03 1.03 0 0 1 58.84 61.92M31.38 54.71A0.996 0.996 0 0 1 31.38 53.3L40.09 44.59A0.996 0.996 0 1 1 41.5 46L33.5 54 41.5 62A0.996 0.996 0 0 1 40.79 63.7C40.53 63.7 40.28 63.6 40.08 63.41zM43.02 70.24L54.27 38.39C54.45 37.87 55.02 37.6 55.55 37.78 56.07 37.96 56.34 38.54 56.16 39.06L44.91 70.9C44.76 71.31 44.38 71.57 43.97 71.57A1 1 0 0 1 43.64 71.51 0.993 0.993 0 0 1 43.02 70.24" fill="#ffffff" data-fill-palette-color="accent"></path></svg></g></svg></g><g></g></svg></g><defs></defs></svg><rect width="235.072659511235" height="247.2" fill="none" stroke="none" visibility="hidden"></rect></g></svg></g></svg>