<?xml version="1.0" encoding="UTF-8"?>
<svg xmlns="http://www.w3.org/2000/svg" xmlns:xlink="http://www.w3.org/1999/xlink" width="120px" height="126px" viewBox="0 0 120 126" version="1.1">
<defs>
<clipPath id="clip1">
  <path d="M 0.0078125 68.980469 L 119.519531 68.980469 L 119.519531 72.96875 L 0.0078125 72.96875 Z M 0.0078125 68.980469 "/>
</clipPath>
<clipPath id="clip2">
  <path d="M 0.304688 82.8125 L 119.21875 82.8125 L 119.21875 125.195312 L 0.304688 125.195312 Z M 0.304688 82.8125 "/>
</clipPath>
<clipPath id="clip3">
  <path d="M 30.269531 0.398438 L 89.257812 0.398438 L 89.257812 58.976562 L 30.269531 58.976562 Z M 30.269531 0.398438 "/>
</clipPath>
</defs>
<g id="surface1">
<g clip-path="url(#clip1)" clip-rule="nonzero">
<path style=" stroke:none;fill-rule:nonzero;fill:rgb(100%,100%,100%);fill-opacity:1;" d="M 1.207031 68.984375 L 118.320312 68.984375 C 118.984375 68.984375 119.519531 69.515625 119.519531 70.167969 L 119.519531 71.621094 C 119.519531 72.273438 118.984375 72.804688 118.320312 72.804688 L 1.207031 72.804688 C 0.546875 72.804688 0.0078125 72.273438 0.0078125 71.621094 L 0.0078125 70.167969 C 0.0078125 69.515625 0.546875 68.984375 1.207031 68.984375 Z M 1.207031 68.984375 "/>
</g>
<g clip-path="url(#clip2)" clip-rule="nonzero">
<path style=" stroke:none;fill-rule:nonzero;fill:rgb(100%,100%,100%);fill-opacity:1;" d="M 3.179688 124.699219 L 0.59375 124.699219 C 0.402344 124.699219 0.304688 124.457031 0.304688 123.980469 C 0.304688 123.621094 0.375 123.285156 0.507812 122.976562 L 7.886719 104.1875 L 0.972656 85.125 C 0.8125 84.542969 0.734375 84.179688 0.734375 84.03125 C 0.734375 83.566406 0.839844 83.332031 1.054688 83.332031 L 4.589844 83.332031 C 5.152344 83.332031 5.59375 83.824219 5.917969 84.804688 L 10.820312 99.015625 L 16.039062 84.746094 C 16.417969 83.804688 16.882812 83.332031 17.429688 83.332031 L 19.765625 83.332031 C 20.039062 83.332031 20.179688 83.585938 20.179688 84.089844 C 20.179688 84.355469 20.128906 84.613281 20.023438 84.863281 L 13.132812 102.324219 L 20.347656 122.917969 C 20.464844 123.28125 20.523438 123.609375 20.523438 123.898438 C 20.523438 124.429688 20.390625 124.699219 20.121094 124.699219 L 17.046875 124.699219 C 16.507812 124.699219 16.074219 124.207031 15.742188 123.222656 L 10.617188 107.992188 L 4.472656 123.285156 C 4.09375 124.226562 3.664062 124.699219 3.179688 124.699219 Z M 29.96875 112.164062 L 36.707031 112.164062 C 36.808594 112.164062 36.859375 112.027344 36.859375 111.75 C 36.859375 111.640625 36.839844 111.574219 36.800781 111.550781 L 33.445312 88.683594 C 33.445312 88.683594 33.425781 88.628906 33.382812 88.519531 C 33.320312 88.519531 33.289062 88.566406 33.289062 88.660156 L 29.613281 111.46875 C 29.597656 111.546875 29.585938 111.632812 29.585938 111.726562 C 29.585938 112.015625 29.714844 112.164062 29.96875 112.164062 Z M 26.632812 124.699219 L 23.820312 124.699219 C 23.527344 124.699219 23.382812 124.410156 23.382812 123.839844 L 23.382812 123.4375 C 23.382812 123.238281 23.394531 123.085938 23.417969 122.976562 L 30.226562 84.832031 C 30.417969 83.832031 30.761719 83.332031 31.257812 83.332031 L 35.757812 83.332031 C 36.277344 83.332031 36.628906 83.832031 36.800781 84.832031 L 43.375 122.976562 C 43.375 123.070312 43.398438 123.21875 43.445312 123.414062 C 43.492188 123.621094 43.515625 123.765625 43.515625 123.863281 C 43.515625 124.421875 43.363281 124.699219 43.054688 124.699219 L 39.460938 124.699219 C 38.9375 124.699219 38.609375 124.269531 38.476562 123.402344 L 37.289062 115.660156 C 37.210938 115.339844 37.121094 115.179688 37.027344 115.179688 L 29.089844 115.179688 C 29.019531 115.179688 28.945312 115.351562 28.867188 115.699219 L 27.535156 123.402344 C 27.429688 123.921875 27.316406 124.269531 27.179688 124.4375 C 27.042969 124.609375 26.863281 124.699219 26.632812 124.699219 Z M 57.90625 124.699219 L 54.632812 124.699219 C 54.132812 124.644531 53.777344 124.050781 53.566406 122.917969 L 46.328125 85.265625 C 46.265625 84.9375 46.234375 84.648438 46.234375 84.40625 C 46.234375 83.691406 46.378906 83.332031 46.671875 83.332031 L 49.945312 83.332031 C 50.414062 83.332031 50.761719 83.949219 50.992188 85.183594 L 56.578125 115.378906 L 61.703125 85.183594 C 61.917969 83.949219 62.257812 83.332031 62.726562 83.332031 L 65.476562 83.332031 C 65.761719 83.332031 65.902344 83.699219 65.902344 84.429688 C 65.902344 84.789062 65.882812 85.070312 65.84375 85.265625 L 58.929688 122.917969 C 58.730469 124.050781 58.390625 124.644531 57.90625 124.699219 Z M 80.292969 125.101562 C 78.726562 125.101562 77.410156 124.917969 76.332031 124.558594 C 75.25 124.1875 74.273438 123.554688 73.402344 122.660156 C 72.53125 121.757812 71.851562 120.496094 71.363281 118.878906 C 70.871094 117.253906 70.492188 115.21875 70.234375 112.777344 C 69.972656 110.335938 69.84375 107.355469 69.84375 103.84375 C 69.84375 99.683594 70.039062 96.25 70.425781 93.546875 C 70.8125 90.847656 71.445312 88.710938 72.335938 87.140625 C 73.21875 85.558594 74.289062 84.460938 75.550781 83.839844 C 76.804688 83.21875 78.386719 82.910156 80.292969 82.910156 C 82.25 82.910156 83.851562 83.210938 85.113281 83.816406 C 86.363281 84.414062 87.433594 85.5 88.328125 87.078125 C 89.210938 88.648438 89.851562 90.785156 90.238281 93.492188 C 90.617188 96.191406 90.804688 99.644531 90.804688 103.84375 C 90.804688 107.371094 90.683594 110.367188 90.4375 112.824219 C 90.183594 115.273438 89.808594 117.308594 89.3125 118.925781 C 88.804688 120.550781 88.117188 121.808594 87.246094 122.695312 C 86.378906 123.59375 85.398438 124.214844 84.304688 124.570312 C 83.210938 124.921875 81.878906 125.101562 80.292969 125.101562 Z M 80.292969 121.386719 C 81.820312 121.386719 82.984375 120.929688 83.785156 120.007812 C 84.589844 119.089844 85.1875 117.375 85.574219 114.859375 C 85.953125 112.347656 86.144531 108.675781 86.144531 103.84375 C 86.144531 99.242188 85.964844 95.730469 85.609375 93.3125 C 85.253906 90.902344 84.671875 89.199219 83.867188 88.199219 C 83.050781 87.203125 81.871094 86.703125 80.332031 86.703125 C 78.804688 86.703125 77.628906 87.226562 76.804688 88.269531 C 75.984375 89.3125 75.394531 91.050781 75.039062 93.476562 C 74.683594 95.90625 74.507812 99.359375 74.507812 103.84375 C 74.507812 108.621094 74.699219 112.265625 75.085938 114.78125 C 75.476562 117.292969 76.0625 119.019531 76.851562 119.964844 C 77.648438 120.914062 78.789062 121.386719 80.292969 121.386719 Z M 109.230469 124.699219 L 97.296875 124.699219 C 97.148438 124.699219 97.027344 124.675781 96.941406 124.628906 C 96.851562 124.578125 96.773438 124.453125 96.703125 124.238281 C 96.640625 124.027344 96.609375 123.730469 96.609375 123.34375 L 96.609375 84.6875 C 96.609375 84.128906 96.664062 83.765625 96.773438 83.59375 C 96.894531 83.417969 97.066406 83.332031 97.296875 83.332031 L 100.570312 83.332031 C 100.726562 83.332031 100.851562 83.355469 100.9375 83.402344 C 101.019531 83.449219 101.09375 83.582031 101.164062 83.792969 C 101.234375 84.003906 101.273438 84.304688 101.273438 84.6875 L 101.273438 120.410156 C 101.273438 120.808594 101.394531 121.007812 101.636719 121.007812 L 109.230469 121.007812 C 109.40625 121.007812 109.53125 121.023438 109.613281 121.058594 C 109.679688 121.089844 109.757812 121.175781 109.835938 121.316406 C 109.914062 121.457031 109.957031 121.6875 109.957031 122 L 109.957031 123.660156 C 109.957031 124.101562 109.898438 124.382812 109.777344 124.511719 C 109.664062 124.636719 109.484375 124.699219 109.230469 124.699219 Z M 118.496094 124.699219 L 115.257812 124.699219 C 115.101562 124.699219 114.976562 124.675781 114.890625 124.628906 C 114.804688 124.578125 114.726562 124.453125 114.652344 124.238281 C 114.589844 124.027344 114.558594 123.730469 114.558594 123.34375 L 114.558594 84.6875 C 114.558594 84.128906 114.617188 83.765625 114.738281 83.59375 C 114.847656 83.417969 115.023438 83.332031 115.257812 83.332031 L 118.496094 83.332031 C 118.75 83.332031 118.929688 83.417969 119.042969 83.582031 C 119.164062 83.746094 119.222656 84.113281 119.222656 84.6875 L 119.222656 123.34375 C 119.222656 123.914062 119.164062 124.285156 119.042969 124.453125 C 118.929688 124.617188 118.75 124.699219 118.496094 124.699219 Z M 118.496094 124.699219 "/>
</g>
<g clip-path="url(#clip3)" clip-rule="nonzero">
<path style=" stroke:none;fill-rule:nonzero;fill:rgb(100%,100%,100%);fill-opacity:1;" d="M 82.515625 0.398438 L 37.011719 0.398438 C 33.292969 0.398438 30.269531 3.402344 30.269531 7.09375 L 30.269531 52.28125 C 30.269531 55.976562 33.292969 58.976562 37.011719 58.976562 L 82.515625 58.976562 C 86.234375 58.976562 89.257812 55.976562 89.257812 52.28125 L 89.257812 7.09375 C 89.257812 3.402344 86.234375 0.398438 82.515625 0.398438 M 87.148438 52.28125 C 87.148438 54.824219 85.074219 56.886719 82.515625 56.886719 L 37.011719 56.886719 C 34.453125 56.886719 32.378906 54.824219 32.378906 52.28125 L 32.378906 12.816406 L 87.148438 12.816406 Z M 87.148438 10.722656 L 32.378906 10.722656 L 32.378906 7.09375 C 32.378906 4.550781 34.453125 2.492188 37.011719 2.492188 L 82.515625 2.492188 C 85.074219 2.492188 87.148438 4.550781 87.148438 7.09375 Z M 69.074219 42.15625 L 77.503906 33.785156 L 69.074219 25.417969 C 68.664062 25.011719 68.664062 24.351562 69.074219 23.945312 C 69.488281 23.539062 70.148438 23.539062 70.5625 23.945312 L 79.734375 33.054688 C 79.9375 33.253906 80.039062 33.515625 80.039062 33.800781 C 80.039062 34.078125 79.925781 34.339844 79.734375 34.539062 L 70.5625 43.652344 C 70.351562 43.859375 70.085938 43.953125 69.8125 43.953125 C 69.539062 43.953125 69.273438 43.851562 69.066406 43.652344 C 68.664062 43.230469 68.667969 42.570312 69.074219 42.15625 M 40.148438 34.613281 C 39.953125 34.417969 39.84375 34.152344 39.84375 33.875 C 39.84375 33.597656 39.953125 33.335938 40.148438 33.136719 L 49.324219 24.03125 C 49.734375 23.621094 50.398438 23.621094 50.808594 24.03125 C 51.222656 24.433594 51.222656 25.09375 50.808594 25.503906 L 42.382812 33.871094 L 50.808594 42.242188 C 51.113281 42.539062 51.199219 42.988281 51.039062 43.378906 C 50.871094 43.765625 50.488281 44.019531 50.0625 44.015625 C 49.789062 44.015625 49.523438 43.914062 49.316406 43.714844 Z M 52.414062 50.859375 L 64.261719 17.542969 C 64.453125 17 65.054688 16.714844 65.609375 16.90625 C 66.160156 17.09375 66.445312 17.699219 66.253906 18.246094 L 54.402344 51.550781 C 54.242188 51.980469 53.84375 52.25 53.414062 52.25 C 53.292969 52.25 53.175781 52.226562 53.066406 52.1875 C 52.800781 52.101562 52.582031 51.90625 52.460938 51.65625 C 52.335938 51.410156 52.320312 51.121094 52.414062 50.859375 "/>
</g>
</g>
</svg>
