<?xml version="1.0" encoding="UTF-8"?>
<svg xmlns="http://www.w3.org/2000/svg" xmlns:xlink="http://www.w3.org/1999/xlink" width="45px" height="48px" viewBox="0 0 45 48" version="1.1">
<defs>
<clipPath id="clip1">
  <path d="M 0.00390625 26.160156 L 44.820312 26.160156 L 44.820312 27.59375 L 0.00390625 27.59375 Z M 0.00390625 26.160156 "/>
</clipPath>
<clipPath id="clip2">
  <path d="M 0.113281 31.140625 L 44.707031 31.140625 L 44.707031 46.421875 L 0.113281 46.421875 Z M 0.113281 31.140625 "/>
</clipPath>
<clipPath id="clip3">
  <path d="M 11.351562 1.429688 L 33.472656 1.429688 L 33.472656 22.550781 L 11.351562 22.550781 Z M 11.351562 1.429688 "/>
</clipPath>
</defs>
<g id="surface1">
<g clip-path="url(#clip1)" clip-rule="nonzero">
<path style=" stroke:none;fill-rule:nonzero;fill:rgb(100%,100%,100%);fill-opacity:1;" d="M 0.453125 26.160156 L 44.371094 26.160156 C 44.621094 26.160156 44.820312 26.351562 44.820312 26.582031 L 44.820312 27.109375 C 44.820312 27.34375 44.621094 27.535156 44.371094 27.535156 L 0.453125 27.535156 C 0.203125 27.535156 0.00390625 27.34375 0.00390625 27.109375 L 0.00390625 26.582031 C 0.00390625 26.351562 0.203125 26.160156 0.453125 26.160156 Z M 0.453125 26.160156 "/>
</g>
<g clip-path="url(#clip2)" clip-rule="nonzero">
<path style=" stroke:none;fill-rule:nonzero;fill:rgb(100%,100%,100%);fill-opacity:1;" d="M 1.191406 46.242188 L 0.222656 46.242188 C 0.152344 46.242188 0.113281 46.15625 0.113281 45.984375 C 0.113281 45.855469 0.140625 45.734375 0.1875 45.625 L 2.957031 38.847656 L 0.363281 31.980469 C 0.308594 31.765625 0.273438 31.636719 0.273438 31.582031 C 0.273438 31.414062 0.316406 31.328125 0.394531 31.328125 L 1.722656 31.328125 C 1.933594 31.328125 2.097656 31.503906 2.21875 31.863281 L 4.054688 36.984375 L 6.015625 31.839844 C 6.15625 31.5 6.332031 31.328125 6.535156 31.328125 L 7.410156 31.328125 C 7.511719 31.328125 7.566406 31.421875 7.566406 31.605469 C 7.566406 31.699219 7.550781 31.792969 7.511719 31.882812 L 4.925781 38.175781 L 7.628906 45.597656 C 7.675781 45.734375 7.695312 45.851562 7.695312 45.953125 C 7.695312 46.148438 7.648438 46.242188 7.546875 46.242188 L 6.390625 46.242188 C 6.191406 46.242188 6.03125 46.0625 5.902344 45.710938 L 3.980469 40.222656 L 1.675781 45.734375 C 1.535156 46.074219 1.375 46.242188 1.191406 46.242188 Z M 11.238281 41.726562 L 13.761719 41.726562 C 13.804688 41.726562 13.824219 41.675781 13.824219 41.574219 C 13.824219 41.539062 13.816406 41.511719 13.796875 41.503906 L 12.542969 33.257812 C 12.542969 33.257812 12.53125 33.238281 12.519531 33.199219 C 12.492188 33.199219 12.484375 33.21875 12.484375 33.253906 L 11.105469 41.472656 C 11.097656 41.503906 11.097656 41.535156 11.097656 41.5625 C 11.097656 41.671875 11.144531 41.726562 11.238281 41.726562 Z M 9.988281 46.242188 L 8.933594 46.242188 C 8.824219 46.242188 8.765625 46.136719 8.765625 45.933594 L 8.765625 45.785156 C 8.765625 45.714844 8.773438 45.664062 8.78125 45.625 L 11.332031 31.871094 C 11.40625 31.511719 11.535156 31.328125 11.71875 31.328125 L 13.40625 31.328125 C 13.605469 31.328125 13.738281 31.511719 13.796875 31.871094 L 16.269531 45.625 C 16.269531 45.652344 16.273438 45.710938 16.289062 45.78125 C 16.308594 45.855469 16.320312 45.90625 16.320312 45.941406 C 16.320312 46.140625 16.257812 46.242188 16.144531 46.242188 L 14.796875 46.242188 C 14.597656 46.242188 14.476562 46.085938 14.425781 45.777344 L 13.980469 42.984375 C 13.953125 42.871094 13.921875 42.8125 13.886719 42.8125 L 10.910156 42.8125 C 10.878906 42.8125 10.855469 42.871094 10.824219 43 L 10.324219 45.777344 C 10.289062 45.960938 10.242188 46.085938 10.191406 46.148438 C 10.140625 46.210938 10.070312 46.242188 9.988281 46.242188 Z M 21.714844 46.242188 L 20.488281 46.242188 C 20.296875 46.226562 20.167969 46.007812 20.085938 45.597656 L 17.375 32.027344 C 17.347656 31.910156 17.339844 31.804688 17.339844 31.71875 C 17.339844 31.457031 17.394531 31.328125 17.5 31.328125 L 18.730469 31.328125 C 18.902344 31.328125 19.039062 31.550781 19.121094 31.996094 L 21.21875 42.886719 L 23.140625 31.996094 C 23.21875 31.550781 23.347656 31.328125 23.523438 31.328125 L 24.550781 31.328125 C 24.664062 31.328125 24.714844 31.464844 24.714844 31.726562 C 24.714844 31.851562 24.707031 31.957031 24.691406 32.027344 L 22.101562 45.597656 C 22.023438 46.007812 21.894531 46.226562 21.714844 46.242188 Z M 30.109375 46.390625 C 29.519531 46.390625 29.027344 46.320312 28.625 46.195312 C 28.222656 46.058594 27.855469 45.832031 27.527344 45.503906 C 27.199219 45.183594 26.941406 44.730469 26.761719 44.144531 C 26.578125 43.5625 26.433594 42.824219 26.339844 41.941406 C 26.238281 41.0625 26.191406 39.988281 26.191406 38.726562 C 26.191406 37.226562 26.265625 35.988281 26.410156 35.011719 C 26.550781 34.039062 26.792969 33.265625 27.128906 32.703125 C 27.457031 32.132812 27.855469 31.734375 28.332031 31.511719 C 28.800781 31.289062 29.394531 31.175781 30.109375 31.175781 C 30.839844 31.175781 31.441406 31.285156 31.917969 31.503906 C 32.386719 31.71875 32.789062 32.109375 33.125 32.683594 C 33.457031 33.246094 33.691406 34.015625 33.835938 34.996094 C 33.984375 35.964844 34.054688 37.210938 34.054688 38.726562 C 34.054688 40 34.003906 41.074219 33.917969 41.960938 C 33.820312 42.847656 33.679688 43.578125 33.496094 44.164062 C 33.300781 44.746094 33.042969 45.199219 32.71875 45.523438 C 32.390625 45.847656 32.023438 46.0625 31.613281 46.195312 C 31.207031 46.320312 30.703125 46.390625 30.109375 46.390625 Z M 30.109375 45.046875 C 30.683594 45.046875 31.121094 44.882812 31.417969 44.550781 C 31.722656 44.21875 31.949219 43.605469 32.089844 42.699219 C 32.230469 41.789062 32.304688 40.464844 32.304688 38.726562 C 32.304688 37.0625 32.238281 35.800781 32.105469 34.925781 C 31.96875 34.058594 31.753906 33.445312 31.453125 33.082031 C 31.144531 32.726562 30.699219 32.542969 30.125 32.542969 C 29.554688 32.542969 29.109375 32.734375 28.800781 33.113281 C 28.492188 33.488281 28.273438 34.113281 28.136719 34.988281 C 28.007812 35.863281 27.941406 37.109375 27.941406 38.726562 C 27.941406 40.449219 28.011719 41.761719 28.15625 42.667969 C 28.304688 43.574219 28.519531 44.199219 28.816406 44.535156 C 29.121094 44.882812 29.542969 45.046875 30.109375 45.046875 Z M 40.960938 46.242188 L 36.484375 46.242188 C 36.433594 46.242188 36.386719 46.234375 36.351562 46.214844 C 36.320312 46.199219 36.292969 46.15625 36.265625 46.078125 C 36.238281 46.003906 36.230469 45.894531 36.230469 45.753906 L 36.230469 31.816406 C 36.230469 31.617188 36.25 31.488281 36.292969 31.425781 C 36.335938 31.359375 36.398438 31.328125 36.484375 31.328125 L 37.714844 31.328125 C 37.769531 31.328125 37.816406 31.339844 37.855469 31.355469 C 37.882812 31.375 37.910156 31.421875 37.9375 31.496094 C 37.960938 31.574219 37.980469 31.679688 37.980469 31.816406 L 37.980469 44.695312 C 37.980469 44.84375 38.023438 44.914062 38.113281 44.914062 L 40.960938 44.914062 C 41.027344 44.914062 41.074219 44.917969 41.105469 44.929688 C 41.128906 44.941406 41.160156 44.972656 41.191406 45.023438 C 41.214844 45.074219 41.234375 45.15625 41.234375 45.269531 L 41.234375 45.867188 C 41.234375 46.027344 41.214844 46.128906 41.167969 46.175781 C 41.121094 46.222656 41.054688 46.242188 40.960938 46.242188 Z M 44.4375 46.242188 L 43.21875 46.242188 C 43.160156 46.242188 43.113281 46.234375 43.085938 46.214844 C 43.054688 46.199219 43.019531 46.15625 42.996094 46.078125 C 42.972656 46.003906 42.960938 45.894531 42.960938 45.753906 L 42.960938 31.816406 C 42.960938 31.617188 42.984375 31.488281 43.027344 31.425781 C 43.066406 31.359375 43.132812 31.328125 43.21875 31.328125 L 44.4375 31.328125 C 44.535156 31.328125 44.601562 31.359375 44.640625 31.421875 C 44.6875 31.476562 44.707031 31.613281 44.707031 31.816406 L 44.707031 45.753906 C 44.707031 45.960938 44.6875 46.09375 44.640625 46.15625 C 44.601562 46.214844 44.535156 46.242188 44.4375 46.242188 Z M 44.4375 46.242188 "/>
</g>
<g clip-path="url(#clip3)" clip-rule="nonzero">
<path style=" stroke:none;fill-rule:nonzero;fill:rgb(100%,100%,100%);fill-opacity:1;" d="M 30.945312 1.429688 L 13.878906 1.429688 C 12.484375 1.429688 11.351562 2.511719 11.351562 3.839844 L 11.351562 20.136719 C 11.351562 21.464844 12.484375 22.550781 13.878906 22.550781 L 30.945312 22.550781 C 32.335938 22.550781 33.472656 21.464844 33.472656 20.136719 L 33.472656 3.839844 C 33.472656 2.511719 32.335938 1.429688 30.945312 1.429688 M 32.683594 20.136719 C 32.683594 21.050781 31.90625 21.792969 30.945312 21.792969 L 13.878906 21.792969 C 12.917969 21.792969 12.140625 21.050781 12.140625 20.136719 L 12.140625 5.910156 L 32.683594 5.910156 Z M 32.683594 5.152344 L 12.140625 5.152344 L 12.140625 3.839844 C 12.140625 2.929688 12.917969 2.183594 13.878906 2.183594 L 30.945312 2.183594 C 31.90625 2.183594 32.683594 2.929688 32.683594 3.839844 Z M 25.902344 16.488281 L 29.066406 13.464844 L 25.902344 10.453125 C 25.746094 10.304688 25.746094 10.066406 25.902344 9.921875 C 26.058594 9.777344 26.308594 9.777344 26.464844 9.921875 L 29.898438 13.203125 C 29.980469 13.273438 30.011719 13.371094 30.011719 13.472656 C 30.011719 13.574219 29.96875 13.671875 29.898438 13.738281 L 26.464844 17.023438 C 26.378906 17.101562 26.285156 17.136719 26.183594 17.136719 C 26.074219 17.136719 25.976562 17.097656 25.902344 17.023438 C 25.746094 16.871094 25.75 16.636719 25.902344 16.488281 M 15.058594 13.765625 C 14.984375 13.691406 14.941406 13.601562 14.941406 13.5 C 14.941406 13.398438 14.984375 13.308594 15.058594 13.234375 L 18.496094 9.949219 C 18.648438 9.800781 18.902344 9.800781 19.054688 9.949219 C 19.207031 10.09375 19.207031 10.335938 19.054688 10.484375 L 15.894531 13.5 L 19.054688 16.515625 C 19.167969 16.621094 19.199219 16.789062 19.136719 16.925781 C 19.078125 17.066406 18.929688 17.160156 18.773438 17.152344 C 18.671875 17.152344 18.574219 17.121094 18.492188 17.050781 Z M 19.65625 19.621094 L 24.101562 7.613281 C 24.171875 7.417969 24.394531 7.3125 24.601562 7.382812 C 24.808594 7.453125 24.917969 7.671875 24.847656 7.867188 L 20.402344 19.871094 C 20.34375 20.027344 20.191406 20.125 20.027344 20.125 C 19.984375 20.125 19.941406 20.121094 19.898438 20.101562 C 19.800781 20.070312 19.71875 20 19.675781 19.910156 C 19.628906 19.824219 19.621094 19.71875 19.65625 19.621094 "/>
</g>
</g>
</svg>
